<?xml version="1.0" standalone="no"?>
<!DOCTYPE svg PUBLIC "-//W3C//DTD SVG 20010904//EN"
 "http://www.w3.org/TR/2001/REC-SVG-20010904/DTD/svg10.dtd">
<svg version="1.0" xmlns="http://www.w3.org/2000/svg"
 width="512.000000pt" height="512.000000pt" viewBox="0 0 512.000000 512.000000"
 preserveAspectRatio="xMidYMid meet">

<g transform="translate(0.000000,512.000000) scale(0.100000,-0.100000)"
fill="#000000" stroke="none">
<path d="M430 2560 l0 -2130 2130 0 2130 0 0 2130 0 2130 -2130 0 -2130 0 0
-2130z m1195 1388 c61 -32 129 -103 158 -166 17 -36 22 -66 22 -132 0 -73 -4
-93 -28 -142 -35 -72 -110 -140 -185 -168 -155 -59 -340 16 -414 168 -29 61
-37 182 -15 246 34 98 116 181 211 212 66 22 191 13 251 -18z m1845 -893 c138
-33 286 -132 361 -241 44 -65 85 -151 111 -235 22 -73 22 -81 26 -757 l3 -682
-285 0 -285 0 -3 588 -3 587 -24 59 c-34 85 -100 150 -175 171 -152 44 -313
-19 -391 -152 -52 -87 -55 -124 -55 -710 l0 -543 -295 0 -295 0 0 950 0 950
265 0 265 0 0 -124 0 -125 83 82 c109 110 209 162 362 193 84 16 241 11 335
-11z m-1700 -965 l0 -950 -295 0 -295 0 0 950 0 950 295 0 295 0 0 -950z"/>
</g>
</svg>
